# xmcd
#
# Track frame offsets:
#	150
#	30651
#	35379
#	52797
#	61981
#	82678
#	95409
#	110981
#	142558
#	157636
#	177885
#	199264
#	216599
#	231309
#	265125
#	278996
#	292239
#	306494
#	322260
#	331057
#
# Disc length: 4779 seconds
#
# Revision: 0
# Processed by: cddbd v1.5.2PL0 Copyright (c) Steve Scherf et al.
# Submitted via: EasyCDDAExtractor 10.0.3.1
#
DISCID=2212a914
DTITLE=Jefferson Airplane - After Bathing At Baxter's - Studio Sessions
DYEAR=1967
DGENRE=Classic Rock
TTITLE0=Ballad Of You And Me And Pooneil
TTITLE1=A Small Package Of Value Will Come To You Shortly
TTITLE2=Young Girl Sunday Blues
TTITLE3=It's All Right
TTITLE4=Go To Her
TTITLE5=Martha
TTITLE6=Wild Tyme
TTITLE7=Other Side Of This Life
TTITLE8=Last Wall Of The Castle
TTITLE9=Rejoyce
TTITLE10=High Flyin' Bird
TTITLE11=Things Are Better In The East
TTITLE12=Watch Her Ride
TTITLE13=Spare Chaynge
TTITLE14=Got A Feeling
TTITLE15=Don't Let ME Down
TTITLE16=Crown Of Creation
TTITLE17=Two Heads
TTITLE18=After Bathing At Baxter's
TTITLE19=Won't You Try-Saturday Afternoon
EXTD=
EXTT0=
EXTT1=
EXTT2=
EXTT3=
EXTT4=
EXTT5=
EXTT6=
EXTT7=
EXTT8=
EXTT9=
EXTT10=
EXTT11=
EXTT12=
EXTT13=
EXTT14=
EXTT15=
EXTT16=
EXTT17=
EXTT18=
EXTT19=
PLAYORDER=
